<svg xmlns="http://www.w3.org/2000/svg" version="1.1" xmlns:xlink="http://www.w3.org/1999/xlink" xmlns:svgjs="http://svgjs.dev/svgjs" width="100%" height="100%" viewBox="0 0 1000 600"><rect width="1000" height="600" x="0" y="0" fill="lightblue"/><g><circle r="166.66666666666666" cx="330.13093058268225" cy="352.35311666732366" fill="blue" transform="matrix(0.7646934187821887,0,0,0.7646934187821887,0,30.55791744945634)"/><path d="M310.36562669771763 314.6047286518782L310.36562669771763 314.6047286518782Q310.36562669771763 325.32736204424 305.9538620049475 336.5759011615678Q301.5128803274571 347.8244402788956 294.4715870098571 358.9853284420624Q287.43029369225707 370.14621660522926 278.6944152608778 381.07336889063333Q269.95853682949854 392.0005211760375 261.13500744395833 402.1095978892723L261.13500744395833 402.1095978892723L249.7696003877492 411.1668631525753L249.7696003877492 411.98493872474455L264.9332154576015 409.67679693183834L313.9300988335981 409.67679693183834L313.9300988335981 427.35307268763916L221.16617234654422 427.35307268763916L221.16617234654422 419.78587364507314Q226.22071070316164 414.93585418149814 233.26200402076165 407.89456086389816Q240.30329733836163 400.85326754629807 247.98736431980893 392.32190800796116Q255.67143130125623 383.81976545434463 263.1217624049409 374.353462404957Q270.60131049334586 364.88715935556945 276.50314140685293 355.0994694742583Q282.3757553356396 345.3117795929471 286.0570954104015 335.8454765435596Q289.7384354851633 326.37917349417194 289.7384354851633 317.96468189471636L289.7384354851633 317.96468189471636Q289.7384354851633 308.0893410592442 283.63208567861386 301.5447364818898Q277.5549528567849 295.02934888925586 264.9332154576015 295.02934888925586L264.9332154576015 295.02934888925586Q256.0804690873409 295.02934888925586 247.8704963809276 298.38930213209403Q239.68974065923464 301.7784723596525 233.7879097457276 306.5992748385073L233.7879097457276 306.5992748385073L225.16889925322968 292.51668820330724Q233.7879097457276 285.56304583986827 244.71506203113177 281.4726679790218Q255.67143130125623 277.353073133455 268.90672537956664 277.353073133455L268.90672537956664 277.353073133455Q288.48210514218897 277.353073133455 299.40925742759316 287.5790177855712Q310.36562669771763 297.77574545296704 310.36562669771763 314.6047286518782ZM356.2070757239185 427.35307268763916L356.2070757239185 409.67679693183834L388.19967399268194 409.67679693183834L388.19967399268194 311.858332088167L390.71233467863044 299.0320757959413L381.45055052228525 309.5501902952608L356.4408116016811 326.37917349417194L347.5880652314205 313.9619549880309L398.27953372119646 277.5868090112176L407.54131787754164 277.5868090112176L407.54131787754164 409.67679693183834L439.0956613755002 409.67679693183834L439.0956613755002 427.35307268763916L356.2070757239185 427.35307268763916Z " fill="white" transform="matrix(0.7646934187821887,0,0,0.7646934187821887,0,30.55791744945634)"/><path d="M702.3637950027535 424.4468851305338L702.3637950027535 331.0169933865694L704.6369583682518 307.7961979947064L703.8025059935752 307.7961979947064L694.9112720702968 327.90937764639443L654.5122674480222 392.13343627667723L648.2970359676722 392.13343627667723L605.8262875186141 327.70795810767936L597.3091184529494 308.0263917532379L596.2732465395577 308.0263917532379L599.6110560382642 330.81557384785435L599.6110560382642 424.4468851305338L580.1309092225376 424.4468851305338L580.1309092225376 279.42481725570156L595.6689879234126 279.42481725570156L644.7578069302506 353.37456218393936L652.4405236212388 369.14283464334574L652.8433626986689 369.14283464334574L660.0944660924105 352.97172310650933L706.7087021950351 279.42481725570156L723.0812332705866 279.42481725570156L723.0812332705866 424.4468851305338L702.3637950027535 424.4468851305338ZM759.7395893167248 315.68033422440953L778.8168970550212 315.68033422440953L778.8168970550212 375.5594856624108Q778.8168970550212 384.2493000469741 779.8527689684129 390.89614482457057Q780.8886408818045 397.5142153823506 783.564643324733 401.97421945389806Q786.2694199874778 406.4342235254454 790.9308435977404 408.79370955039315Q795.5922672080028 411.1819697951572 802.8433706017444 411.1819697951572L802.8433706017444 411.1819697951572Q815.2738335624443 411.1819697951572 823.129195572331 404.1322859401307Q831.0133318020343 397.11137630492055 835.1568194556008 386.752657171004L835.1568194556008 386.752657171004L835.1568194556008 315.68033422440953L854.2053529740808 315.68033422440953L854.2053529740808 393.5721472674991Q854.2053529740808 401.4562834972022 854.8383858100424 409.6281619250698Q855.4714186460039 417.8288145727537 856.7087100981106 424.4468851305338L856.7087100981106 424.4468851305338L843.8466338401643 424.4468851305338L838.8974680317374 406.4342235254454L836.8257242049541 406.4342235254454Q831.4161708794643 415.7570707459704 821.8919041202244 421.5406889290738Q812.3676373609843 427.35308133199374 798.0668501122162 427.35308133199374L798.0668501122162 427.35308133199374Q788.5425833529763 427.35308133199374 781.4065768385003 425.0799179664954Q774.241796104208 422.77798038118056 769.3789529552306 417.31087861605795Q764.516109806253 411.8150026311188 762.1278495614889 402.693574949309Q759.7395893167248 393.5721472674991 759.7395893167248 379.90439285469245L759.7395893167248 379.90439285469245L759.7395893167248 315.68033422440953ZM948.0668580152917 394.00376056474556L948.0668580152917 394.00376056474556Q948.0668580152917 389.860272911179 946.1102110677742 387.0403993691683Q944.1247899004401 384.2493000469741 940.8157546215501 382.2926530994565Q937.5067193426602 380.3072319321225 933.1618121503784 378.86852094130074Q928.7881307382803 377.429809950479 924.0403844685685 375.9623247398408L924.0403844685685 375.9623247398408Q918.0265725269336 374.322194210304 911.9264379258494 372.33677304297Q905.7975291049487 370.3801260954525 900.9346859559713 366.95599393729674Q896.0718428069937 363.53186177914097 892.9642270668187 358.1510826734676Q889.8566113266437 352.77030356779426 889.8566113266437 344.483328260661L889.8566113266437 344.483328260661Q889.8566113266437 328.3122167238246 899.4959749651495 320.4568547139378Q909.1065643838388 312.57271848423454 926.5149673727819 312.57271848423454L926.5149673727819 312.57271848423454Q939.5784631694434 312.57271848423454 948.4696970927217 315.047301388448Q957.3897052358167 317.55065851247787 964.0077757935967 320.4568547139378L964.0077757935967 320.4568547139378L959.4614490626 336.59919203095785Q953.8792504182117 333.92318958802935 946.1102110677742 331.3335098045502Q938.3411717173367 328.74383002107106 929.0183244968117 328.74383002107106L929.0183244968117 328.74383002107106Q918.8610249016102 328.74383002107106 913.883084873367 332.0528652999611Q908.9051448451237 335.3619005788511 908.9051448451237 344.0517149634145L908.9051448451237 344.0517149634145Q908.9051448451237 347.590944000836 910.7754691331919 349.97920424560004Q912.6457934212602 352.3386902705478 915.7534091614353 354.12269189916674Q918.8610249016102 355.87791930796925 923.0045125551768 357.2303076393416Q927.1480002087435 358.55392175089764 931.6943269397402 359.8199874228209L931.6943269397402 359.8199874228209Q937.9095584200901 361.46011795235756 944.1247899004401 363.6469586584067Q950.3400213807901 365.80502514463933 955.5193809477483 369.43057684151006Q960.6987405147066 373.0561285383809 963.9214531341473 378.6671014025858Q967.1153915337717 384.2493000469741 967.1153915337717 392.73769489282245L967.1153915337717 392.73769489282245Q967.1153915337717 408.0743540549822 956.7566723998551 417.713717693488Q946.3979532659384 427.35308133199374 925.6805149981053 427.35308133199374L925.6805149981053 427.35308133199374Q912.4443738825452 427.35308133199374 902.6035907053246 424.6483046692488Q892.7628075281037 421.9723022263204 886.1159627505073 418.4330731888988L886.1159627505073 418.4330731888988L891.4967418561806 401.85912257463235Q897.3091342591005 404.96673831480734 906.4305619409103 408.0743540549822Q915.5519896227203 411.1819697951572 924.8748368432451 411.1819697951572L924.8748368432451 411.1819697951572Q935.0033622186303 411.1819697951572 941.5351101169609 407.5564180982865Q948.0668580152917 403.93086640141564 948.0668580152917 394.00376056474556ZM1001.932197511658 424.4468851305338L1001.932197511658 315.68033422440953L1020.9807310301379 315.68033422440953L1020.9807310301379 424.4468851305338L1001.932197511658 424.4468851305338ZM997.9901293968063 289.7835363896181L997.9901293968063 289.7835363896181Q997.9901293968063 285.00701590008987 1001.730777972943 281.18004466450407Q1005.4426523292631 277.3530734289182 1011.456464270898 277.3530734289182L1011.456464270898 277.3530734289182Q1017.4702762125329 277.3530734289182 1021.4123443273844 281.18004466450407Q1025.354412442236 285.00701590008987 1025.354412442236 289.7835363896181L1025.354412442236 289.7835363896181Q1025.354412442236 294.56005687914626 1021.4123443273844 298.1856085760171Q1017.4702762125329 301.81116027288795 1011.456464270898 301.81116027288795L1011.456464270898 301.81116027288795Q1005.4426523292631 301.81116027288795 1001.730777972943 298.1856085760171Q997.9901293968063 294.56005687914626 997.9901293968063 289.7835363896181ZM1138.0342572433956 403.096414026739L1144.2494887237453 416.99436219807706Q1136.9983853300037 422.17372176503545 1127.2726990320489 424.7634015485146Q1117.5470127340936 427.35308133199374 1106.7566803029306 427.35308133199374L1106.7566803029306 427.35308133199374Q1093.0889258901238 427.35308133199374 1083.4495622516183 423.20959367842704Q1073.8101986131123 419.06610602486046 1067.8251608912942 411.6135830924038Q1061.811348949659 404.1322859401307 1059.1065722869143 393.5721472674991Q1056.4305698439857 383.01200859486744 1056.4305698439857 370.17870655673744L1056.4305698439857 370.17870655673744Q1056.4305698439857 342.61300397259265 1069.7818078388118 327.59286122841365Q1083.1330458336374 312.57271848423454 1108.2241655135688 312.57271848423454L1108.2241655135688 312.57271848423454Q1119.1871432636303 312.57271848423454 1127.2726990320489 314.5293654317521Q1135.358254800467 316.51478659908616 1141.7749058195318 319.4209828005461L1141.7749058195318 319.4209828005461L1136.7969657912886 334.95906150142105Q1131.2147671469004 332.0528652999611 1124.6830192485695 330.38396055060787Q1118.1512713502389 328.74383002107106 1110.497328879067 328.74383002107106L1110.497328879067 328.74383002107106Q1076.7163948145726 328.74383002107106 1076.7163948145726 370.17870655673744L1076.7163948145726 370.17870655673744Q1076.7163948145726 378.0340685666242 1078.586719102641 385.4002688396315Q1080.4570433907088 392.73769489282245 1084.6005310442756 398.4349904164766Q1088.7440186978422 404.1322859401307 1095.4771861348881 407.6715149775522Q1102.2103535719339 411.1819697951572 1111.9360398698889 411.1819697951572L1111.9360398698889 411.1819697951572Q1120.6546284742685 411.1819697951572 1127.157602152783 408.79370955039315Q1133.6893500511137 406.4342235254454 1138.0342572433956 403.096414026739L1138.0342572433956 403.096414026739Z " fill="black" transform="matrix(0.7646934187821887,0,0,0.7646934187821887,0,30.55791744945634)"/></g></svg>